<svg width="234" height="73" viewBox="0 0 234 73" fill="none" xmlns="http://www.w3.org/2000/svg">
<path d="M25.1445 5.68683L41.7615 1L51.1352 7.81721L35.7964 15.0605L34.9443 31.2514L25.1445 24.4342V5.68683Z" fill="#0E5687"/>
<path d="M0 22.722L16.617 18.0352L25.9906 24.8524L10.6519 32.0957L9.79974 48.2865L0 41.4693V22.722Z" fill="#EDA333"/>
<path d="M60.9297 51.2878L44.3127 55.9746L34.9391 49.1574L50.2778 41.9141L51.1299 25.7232L60.9297 32.5404L60.9297 51.2878Z" fill="#0E5687"/>
<path d="M35.7852 68.3132L19.1682 73L9.79454 66.1828L25.1333 58.9395L25.9854 42.7486L35.7852 49.5658L35.7852 68.3132Z" fill="#EDA333"/>
<path d="M94.0449 11.4062V37H88.7715L78.4883 19.8438V37H73.2148V11.4062H78.4883L88.7891 28.5801V11.4062H94.0449ZM104.24 11.4062V37H98.9844V11.4062H104.24ZM114.453 11.4062V37H109.18V11.4062H114.453ZM129.781 11.4062L119.639 24.0449L113.785 30.3379L112.836 25.3457L116.791 19.9316L123.312 11.4062H129.781ZM123.787 37L116.246 25.1699L120.148 21.9004L130.027 37H123.787ZM137.34 11.4062V37H132.066V11.4062H137.34ZM152.668 11.4062L142.525 24.0449L136.672 30.3379L135.723 25.3457L139.678 19.9316L146.199 11.4062H152.668ZM146.674 37L139.133 25.1699L143.035 21.9004L152.914 37H146.674ZM175.414 23.6055V24.8184C175.414 26.7637 175.15 28.5098 174.623 30.0566C174.096 31.6035 173.352 32.9219 172.391 34.0117C171.43 35.0898 170.281 35.916 168.945 36.4902C167.621 37.0645 166.15 37.3516 164.533 37.3516C162.928 37.3516 161.457 37.0645 160.121 36.4902C158.797 35.916 157.648 35.0898 156.676 34.0117C155.703 32.9219 154.947 31.6035 154.408 30.0566C153.881 28.5098 153.617 26.7637 153.617 24.8184V23.6055C153.617 21.6484 153.881 19.9023 154.408 18.3672C154.936 16.8203 155.68 15.502 156.641 14.4121C157.613 13.3223 158.762 12.4902 160.086 11.916C161.422 11.3418 162.893 11.0547 164.498 11.0547C166.115 11.0547 167.586 11.3418 168.91 11.916C170.246 12.4902 171.395 13.3223 172.355 14.4121C173.328 15.502 174.078 16.8203 174.605 18.3672C175.145 19.9023 175.414 21.6484 175.414 23.6055ZM170.088 24.8184V23.5703C170.088 22.2109 169.965 21.0156 169.719 19.9844C169.473 18.9531 169.109 18.0859 168.629 17.3828C168.148 16.6797 167.562 16.1523 166.871 15.8008C166.18 15.4375 165.389 15.2559 164.498 15.2559C163.607 15.2559 162.816 15.4375 162.125 15.8008C161.445 16.1523 160.865 16.6797 160.385 17.3828C159.916 18.0859 159.559 18.9531 159.312 19.9844C159.066 21.0156 158.943 22.2109 158.943 23.5703V24.8184C158.943 26.166 159.066 27.3613 159.312 28.4043C159.559 29.4355 159.922 30.3086 160.402 31.0234C160.883 31.7266 161.469 32.2598 162.16 32.623C162.852 32.9863 163.643 33.168 164.533 33.168C165.424 33.168 166.215 32.9863 166.906 32.623C167.598 32.2598 168.178 31.7266 168.646 31.0234C169.115 30.3086 169.473 29.4355 169.719 28.4043C169.965 27.3613 170.088 26.166 170.088 24.8184ZM193.344 11.4062H198.6V28.3164C198.6 30.2852 198.178 31.9434 197.334 33.291C196.502 34.6387 195.348 35.6523 193.871 36.332C192.406 37.0117 190.719 37.3516 188.809 37.3516C186.898 37.3516 185.199 37.0117 183.711 36.332C182.234 35.6523 181.074 34.6387 180.23 33.291C179.398 31.9434 178.982 30.2852 178.982 28.3164V11.4062H184.256V28.3164C184.256 29.4648 184.438 30.4023 184.801 31.1289C185.164 31.8555 185.686 32.3887 186.365 32.7285C187.057 33.0684 187.871 33.2383 188.809 33.2383C189.77 33.2383 190.584 33.0684 191.252 32.7285C191.932 32.3887 192.447 31.8555 192.799 31.1289C193.162 30.4023 193.344 29.4648 193.344 28.3164V11.4062Z" fill="#0E5687"/>
<path d="M81.2812 63.0566V65H74.1426V63.0566H81.2812ZM74.8262 50.7812V65H72.375V50.7812H74.8262ZM82.4922 59.834V59.6094C82.4922 58.8477 82.6029 58.1413 82.8242 57.4902C83.0456 56.8327 83.3646 56.263 83.7812 55.7812C84.2044 55.293 84.7188 54.9154 85.3242 54.6484C85.9362 54.375 86.6263 54.2383 87.3945 54.2383C88.1693 54.2383 88.8594 54.375 89.4648 54.6484C90.0768 54.9154 90.5944 55.293 91.0176 55.7812C91.4408 56.263 91.763 56.8327 91.9844 57.4902C92.2057 58.1413 92.3164 58.8477 92.3164 59.6094V59.834C92.3164 60.5957 92.2057 61.3021 91.9844 61.9531C91.763 62.6042 91.4408 63.1738 91.0176 63.6621C90.5944 64.1439 90.0801 64.5215 89.4746 64.7949C88.8691 65.0618 88.1823 65.1953 87.4141 65.1953C86.6393 65.1953 85.946 65.0618 85.334 64.7949C84.7285 64.5215 84.2142 64.1439 83.791 63.6621C83.3678 63.1738 83.0456 62.6042 82.8242 61.9531C82.6029 61.3021 82.4922 60.5957 82.4922 59.834ZM84.8457 59.6094V59.834C84.8457 60.3092 84.8945 60.7585 84.9922 61.1816C85.0898 61.6048 85.2428 61.9759 85.4512 62.2949C85.6595 62.6139 85.9264 62.8646 86.252 63.0469C86.5775 63.2292 86.9648 63.3203 87.4141 63.3203C87.8503 63.3203 88.2279 63.2292 88.5469 63.0469C88.8724 62.8646 89.1393 62.6139 89.3477 62.2949C89.556 61.9759 89.709 61.6048 89.8066 61.1816C89.9108 60.7585 89.9629 60.3092 89.9629 59.834V59.6094C89.9629 59.1406 89.9108 58.6979 89.8066 58.2812C89.709 57.8581 89.5527 57.4837 89.3379 57.1582C89.1296 56.8327 88.8626 56.5788 88.5371 56.3965C88.2181 56.2077 87.8372 56.1133 87.3945 56.1133C86.9518 56.1133 86.5677 56.2077 86.2422 56.3965C85.9232 56.5788 85.6595 56.8327 85.4512 57.1582C85.2428 57.4837 85.0898 57.8581 84.9922 58.2812C84.8945 58.6979 84.8457 59.1406 84.8457 59.6094ZM101.057 54.4336H103.195V64.707C103.195 65.6576 102.993 66.4648 102.59 67.1289C102.186 67.793 101.623 68.2975 100.9 68.6426C100.178 68.9941 99.3411 69.1699 98.3906 69.1699C97.987 69.1699 97.5378 69.1113 97.043 68.9941C96.5547 68.877 96.0794 68.6882 95.6172 68.4277C95.1615 68.1738 94.7806 67.8385 94.4746 67.4219L95.5781 66.0352C95.9557 66.4844 96.3724 66.8132 96.8281 67.0215C97.2839 67.2298 97.7624 67.334 98.2637 67.334C98.804 67.334 99.263 67.2331 99.6406 67.0312C100.025 66.8359 100.321 66.5462 100.529 66.1621C100.738 65.778 100.842 65.3092 100.842 64.7559V56.8262L101.057 54.4336ZM93.8789 59.834V59.6289C93.8789 58.8281 93.9766 58.099 94.1719 57.4414C94.3672 56.7773 94.6471 56.2077 95.0117 55.7324C95.3763 55.2507 95.819 54.8828 96.3398 54.6289C96.8607 54.3685 97.4499 54.2383 98.1074 54.2383C98.791 54.2383 99.3737 54.362 99.8555 54.6094C100.344 54.8568 100.751 55.2116 101.076 55.6738C101.402 56.1296 101.656 56.6764 101.838 57.3145C102.027 57.946 102.167 58.6491 102.258 59.4238V60.0781C102.173 60.8333 102.03 61.5234 101.828 62.1484C101.626 62.7734 101.359 63.3138 101.027 63.7695C100.695 64.2253 100.285 64.5768 99.7969 64.8242C99.3151 65.0716 98.7454 65.1953 98.0879 65.1953C97.4434 65.1953 96.8607 65.0618 96.3398 64.7949C95.8255 64.528 95.3828 64.1536 95.0117 63.6719C94.6471 63.1901 94.3672 62.6237 94.1719 61.9727C93.9766 61.3151 93.8789 60.6022 93.8789 59.834ZM96.2324 59.6289V59.834C96.2324 60.3158 96.278 60.765 96.3691 61.1816C96.4668 61.5983 96.6133 61.9661 96.8086 62.2852C97.0104 62.5977 97.2643 62.8451 97.5703 63.0273C97.8828 63.2031 98.2507 63.291 98.6738 63.291C99.2272 63.291 99.6797 63.1738 100.031 62.9395C100.389 62.7051 100.663 62.3893 100.852 61.9922C101.047 61.5885 101.184 61.1393 101.262 60.6445V58.877C101.223 58.4928 101.141 58.1348 101.018 57.8027C100.9 57.4707 100.741 57.181 100.539 56.9336C100.337 56.6797 100.083 56.4844 99.7773 56.3477C99.4714 56.2044 99.11 56.1328 98.6934 56.1328C98.2702 56.1328 97.9023 56.224 97.5898 56.4062C97.2773 56.5885 97.0202 56.8392 96.8184 57.1582C96.623 57.4772 96.4766 57.8483 96.3789 58.2715C96.2812 58.6947 96.2324 59.1471 96.2324 59.6289ZM108.156 54.4336V65H105.793V54.4336H108.156ZM105.637 51.6602C105.637 51.3021 105.754 51.0059 105.988 50.7715C106.229 50.5306 106.561 50.4102 106.984 50.4102C107.401 50.4102 107.73 50.5306 107.971 50.7715C108.212 51.0059 108.332 51.3021 108.332 51.6602C108.332 52.0117 108.212 52.3047 107.971 52.5391C107.73 52.7734 107.401 52.8906 106.984 52.8906C106.561 52.8906 106.229 52.7734 105.988 52.5391C105.754 52.3047 105.637 52.0117 105.637 51.6602ZM116.662 62.1387C116.662 61.9043 116.604 61.6927 116.486 61.5039C116.369 61.3086 116.145 61.1328 115.812 60.9766C115.487 60.8203 115.005 60.6771 114.367 60.5469C113.807 60.4232 113.293 60.2767 112.824 60.1074C112.362 59.9316 111.965 59.7201 111.633 59.4727C111.301 59.2253 111.044 58.9323 110.861 58.5938C110.679 58.2552 110.588 57.8646 110.588 57.4219C110.588 56.9922 110.682 56.5853 110.871 56.2012C111.06 55.8171 111.33 55.4785 111.682 55.1855C112.033 54.8926 112.46 54.6615 112.961 54.4922C113.469 54.3229 114.035 54.2383 114.66 54.2383C115.546 54.2383 116.304 54.388 116.936 54.6875C117.574 54.9805 118.062 55.3809 118.4 55.8887C118.739 56.39 118.908 56.9564 118.908 57.5879H116.555C116.555 57.3079 116.483 57.0475 116.34 56.8066C116.203 56.5592 115.995 56.3607 115.715 56.2109C115.435 56.0547 115.083 55.9766 114.66 55.9766C114.257 55.9766 113.921 56.0417 113.654 56.1719C113.394 56.2956 113.199 56.4583 113.068 56.6602C112.945 56.862 112.883 57.0833 112.883 57.3242C112.883 57.5 112.915 57.6595 112.98 57.8027C113.052 57.9395 113.169 58.0664 113.332 58.1836C113.495 58.2943 113.716 58.3984 113.996 58.4961C114.283 58.5938 114.641 58.6882 115.07 58.7793C115.878 58.9486 116.571 59.1667 117.15 59.4336C117.736 59.694 118.186 60.0326 118.498 60.4492C118.811 60.8594 118.967 61.3802 118.967 62.0117C118.967 62.4805 118.866 62.9102 118.664 63.3008C118.469 63.6849 118.182 64.0202 117.805 64.3066C117.427 64.5866 116.975 64.8047 116.447 64.9609C115.926 65.1172 115.34 65.1953 114.689 65.1953C113.732 65.1953 112.922 65.026 112.258 64.6875C111.594 64.3424 111.089 63.903 110.744 63.3691C110.406 62.8288 110.236 62.2689 110.236 61.6895H112.512C112.538 62.1257 112.658 62.474 112.873 62.7344C113.094 62.9883 113.368 63.1738 113.693 63.291C114.025 63.4017 114.367 63.457 114.719 63.457C115.142 63.457 115.497 63.4017 115.783 63.291C116.07 63.1738 116.288 63.0176 116.438 62.8223C116.587 62.6204 116.662 62.3926 116.662 62.1387ZM125.871 54.4336V56.1523H119.914V54.4336H125.871ZM121.633 51.8457H123.986V62.0801C123.986 62.4056 124.032 62.6562 124.123 62.832C124.221 63.0013 124.354 63.1152 124.523 63.1738C124.693 63.2324 124.891 63.2617 125.119 63.2617C125.282 63.2617 125.438 63.252 125.588 63.2324C125.738 63.2129 125.858 63.1934 125.949 63.1738L125.959 64.9707C125.764 65.0293 125.536 65.0814 125.275 65.127C125.021 65.1725 124.729 65.1953 124.396 65.1953C123.856 65.1953 123.378 65.1009 122.961 64.9121C122.544 64.7168 122.219 64.401 121.984 63.9648C121.75 63.5286 121.633 62.9492 121.633 62.2266V51.8457ZM130.207 54.4336V65H127.844V54.4336H130.207ZM127.688 51.6602C127.688 51.3021 127.805 51.0059 128.039 50.7715C128.28 50.5306 128.612 50.4102 129.035 50.4102C129.452 50.4102 129.781 50.5306 130.021 50.7715C130.262 51.0059 130.383 51.3021 130.383 51.6602C130.383 52.0117 130.262 52.3047 130.021 52.5391C129.781 52.7734 129.452 52.8906 129.035 52.8906C128.612 52.8906 128.28 52.7734 128.039 52.5391C127.805 52.3047 127.688 52.0117 127.688 51.6602ZM137.102 63.3203C137.486 63.3203 137.831 63.2454 138.137 63.0957C138.449 62.9395 138.7 62.7246 138.889 62.4512C139.084 62.1777 139.191 61.862 139.211 61.5039H141.428C141.415 62.1875 141.213 62.8092 140.822 63.3691C140.432 63.929 139.914 64.375 139.27 64.707C138.625 65.0326 137.912 65.1953 137.131 65.1953C136.324 65.1953 135.62 65.0586 135.021 64.7852C134.423 64.5052 133.924 64.1211 133.527 63.6328C133.13 63.1445 132.831 62.5814 132.629 61.9434C132.434 61.3053 132.336 60.6217 132.336 59.8926V59.5508C132.336 58.8216 132.434 58.138 132.629 57.5C132.831 56.8555 133.13 56.2891 133.527 55.8008C133.924 55.3125 134.423 54.9316 135.021 54.6582C135.62 54.3783 136.32 54.2383 137.121 54.2383C137.967 54.2383 138.71 54.4076 139.348 54.7461C139.986 55.0781 140.487 55.5436 140.852 56.1426C141.223 56.735 141.415 57.4251 141.428 58.2129H139.211C139.191 57.8223 139.094 57.4707 138.918 57.1582C138.749 56.8392 138.508 56.5853 138.195 56.3965C137.889 56.2077 137.521 56.1133 137.092 56.1133C136.617 56.1133 136.223 56.2109 135.91 56.4062C135.598 56.5951 135.354 56.8555 135.178 57.1875C135.002 57.513 134.875 57.8809 134.797 58.291C134.725 58.6947 134.689 59.1146 134.689 59.5508V59.8926C134.689 60.3288 134.725 60.752 134.797 61.1621C134.868 61.5723 134.992 61.9401 135.168 62.2656C135.35 62.5846 135.598 62.8418 135.91 63.0371C136.223 63.2259 136.62 63.3203 137.102 63.3203ZM149.162 62.1387C149.162 61.9043 149.104 61.6927 148.986 61.5039C148.869 61.3086 148.645 61.1328 148.312 60.9766C147.987 60.8203 147.505 60.6771 146.867 60.5469C146.307 60.4232 145.793 60.2767 145.324 60.1074C144.862 59.9316 144.465 59.7201 144.133 59.4727C143.801 59.2253 143.544 58.9323 143.361 58.5938C143.179 58.2552 143.088 57.8646 143.088 57.4219C143.088 56.9922 143.182 56.5853 143.371 56.2012C143.56 55.8171 143.83 55.4785 144.182 55.1855C144.533 54.8926 144.96 54.6615 145.461 54.4922C145.969 54.3229 146.535 54.2383 147.16 54.2383C148.046 54.2383 148.804 54.388 149.436 54.6875C150.074 54.9805 150.562 55.3809 150.9 55.8887C151.239 56.39 151.408 56.9564 151.408 57.5879H149.055C149.055 57.3079 148.983 57.0475 148.84 56.8066C148.703 56.5592 148.495 56.3607 148.215 56.2109C147.935 56.0547 147.583 55.9766 147.16 55.9766C146.757 55.9766 146.421 56.0417 146.154 56.1719C145.894 56.2956 145.699 56.4583 145.568 56.6602C145.445 56.862 145.383 57.0833 145.383 57.3242C145.383 57.5 145.415 57.6595 145.48 57.8027C145.552 57.9395 145.669 58.0664 145.832 58.1836C145.995 58.2943 146.216 58.3984 146.496 58.4961C146.783 58.5938 147.141 58.6882 147.57 58.7793C148.378 58.9486 149.071 59.1667 149.65 59.4336C150.236 59.694 150.686 60.0326 150.998 60.4492C151.311 60.8594 151.467 61.3802 151.467 62.0117C151.467 62.4805 151.366 62.9102 151.164 63.3008C150.969 63.6849 150.682 64.0202 150.305 64.3066C149.927 64.5866 149.475 64.8047 148.947 64.9609C148.426 65.1172 147.84 65.1953 147.189 65.1953C146.232 65.1953 145.422 65.026 144.758 64.6875C144.094 64.3424 143.589 63.903 143.244 63.3691C142.906 62.8288 142.736 62.2689 142.736 61.6895H145.012C145.038 62.1257 145.158 62.474 145.373 62.7344C145.594 62.9883 145.868 63.1738 146.193 63.291C146.525 63.4017 146.867 63.457 147.219 63.457C147.642 63.457 147.997 63.4017 148.283 63.291C148.57 63.1738 148.788 63.0176 148.938 62.8223C149.087 62.6204 149.162 62.3926 149.162 62.1387ZM164.143 59.6973H160.441V57.7539H164.143C164.787 57.7539 165.308 57.6497 165.705 57.4414C166.102 57.2331 166.392 56.9466 166.574 56.582C166.763 56.2109 166.857 55.7878 166.857 55.3125C166.857 54.8633 166.763 54.4434 166.574 54.0527C166.392 53.6556 166.102 53.3366 165.705 53.0957C165.308 52.8548 164.787 52.7344 164.143 52.7344H161.193V65H158.742V50.7812H164.143C165.243 50.7812 166.177 50.9766 166.945 51.3672C167.72 51.7513 168.309 52.2852 168.713 52.9688C169.117 53.6458 169.318 54.4206 169.318 55.293C169.318 56.2109 169.117 56.9987 168.713 57.6562C168.309 58.3138 167.72 58.8184 166.945 59.1699C166.177 59.5215 165.243 59.6973 164.143 59.6973ZM176.389 62.4023L180.129 50.7812H182.834L177.736 65H175.91L176.389 62.4023ZM172.932 50.7812L176.643 62.4023L177.15 65H175.314L170.236 50.7812H172.932ZM190.275 50.7812V65H187.844V50.7812H190.275ZM194.738 50.7812V52.7344H183.42V50.7812H194.738ZM210.031 63.0566V65H202.893V63.0566H210.031ZM203.576 50.7812V65H201.125V50.7812H203.576ZM215.334 50.7812V65H212.902V50.7812H215.334ZM219.797 50.7812V52.7344H208.479V50.7812H219.797ZM225.803 65H222.766L222.785 63.0566H225.803C226.682 63.0566 227.417 62.8646 228.01 62.4805C228.609 62.0964 229.058 61.5462 229.357 60.8301C229.663 60.1139 229.816 59.2611 229.816 58.2715V57.5C229.816 56.7318 229.729 56.0514 229.553 55.459C229.383 54.8665 229.13 54.3685 228.791 53.9648C228.459 53.5612 228.049 53.2552 227.561 53.0469C227.079 52.8385 226.522 52.7344 225.891 52.7344H222.707V50.7812H225.891C226.835 50.7812 227.697 50.9408 228.479 51.2598C229.26 51.5723 229.934 52.0247 230.5 52.6172C231.073 53.2096 231.512 53.9193 231.818 54.7461C232.124 55.5729 232.277 56.4974 232.277 57.5195V58.2715C232.277 59.2936 232.124 60.2181 231.818 61.0449C231.512 61.8717 231.073 62.5814 230.5 63.1738C229.927 63.7598 229.243 64.2122 228.449 64.5312C227.661 64.8438 226.779 65 225.803 65ZM224.123 50.7812V65H221.672V50.7812H224.123Z" fill="#EDA333"/>
</svg>
